<?xml version="1.0" encoding="UTF-8"?>
<svg width="20px" height="20px" viewBox="0 0 20 20" version="1.1" xmlns="http://www.w3.org/2000/svg" xmlns:xlink="http://www.w3.org/1999/xlink">
    <!-- Generator: Sketch 49.2 (51160) - http://www.bohemiancoding.com/sketch -->
    <title>contract-orange</title>
    <desc>Created with Sketch.</desc>
    <defs></defs>
    <g id="contract-orange" stroke="none" stroke-width="1" fill="none" fill-rule="evenodd">
        <g id="contract">
            <path d="M15.2153516,3.41492188 C15.2153516,2.94570313 15.0322266,2.50398437 14.7003516,2.17210937 L13.0432422,0.515 C12.7159766,0.187695312 12.2514062,0 11.7890625,0 L11.6883594,0 L11.6883594,3.515625 L15.2153906,3.515625 L15.2153516,3.41492188 Z" id="Shape" fill="#FF8B18" fill-rule="nonzero"></path>
            <path d="M10.7006641,12.0912891 C10.8128125,11.7508203 11.0085156,11.4338281 11.2637109,11.1769141 L15.2309766,7.225625 L15.2309766,4.6875 L11.1137891,4.6875 C10.7899219,4.6875 10.546875,4.42542969 10.546875,4.1015625 L10.546875,0 L1.7578125,0 C0.788515625,0 0,0.788515625 0,1.7578125 L0,18.2421875 C0,19.2114844 0.788515625,20 1.7578125,20 L13.4575391,20 C14.4268359,20 15.2309766,19.2114844 15.2309766,18.2421875 L15.2309766,13.8691016 L14.5870703,14.4973828 C14.3261719,14.7560156 14.020625,14.9442578 13.6761328,15.0592969 L11.8130469,15.6812891 L11.5292187,15.6967578 C11.06,15.6967578 10.6159766,15.4684375 10.3401953,15.0862109 C10.0666797,14.7057031 9.99230469,14.2124609 10.1410547,13.7667187 L10.7006641,12.0912891 Z M2.9296875,10.546875 L8.77003906,10.546875 C9.09390625,10.546875 9.35597656,10.8089453 9.35597656,11.1328125 C9.35597656,11.4566797 9.09390625,11.71875 8.77003906,11.71875 L2.9296875,11.71875 C2.60582031,11.71875 2.34375,11.4566797 2.34375,11.1328125 C2.34375,10.8089453 2.60582031,10.546875 2.9296875,10.546875 Z M2.34375,8.7890625 C2.34375,8.46519531 2.60582031,8.203125 2.9296875,8.203125 L8.77003906,8.203125 C9.09390625,8.203125 9.35597656,8.46519531 9.35597656,8.7890625 C9.35597656,9.11292969 9.09390625,9.375 8.77003906,9.375 L2.9296875,9.375 C2.60582031,9.375 2.34375,9.11292969 2.34375,8.7890625 Z M2.34375,13.4765625 C2.34375,13.1526953 2.60582031,12.890625 2.9296875,12.890625 L8.77003906,12.890625 C9.09390625,12.890625 9.35597656,13.1526953 9.35597656,13.4765625 C9.35597656,13.8004297 9.09390625,14.0625 8.77003906,14.0625 L2.9296875,14.0625 C2.60582031,14.0625 2.34375,13.8004297 2.34375,13.4765625 Z M11.1137891,16.40625 C11.4376562,16.40625 11.6997266,16.6683203 11.6997266,16.9921875 C11.6997266,17.3160547 11.4376953,17.578125 11.1137891,17.578125 L7.59816406,17.578125 C7.27429688,17.578125 7.01222656,17.3160547 7.01222656,16.9921875 C7.01222656,16.6683203 7.27429688,16.40625 7.59816406,16.40625 L11.1137891,16.40625 Z M2.9296875,7.03125 C2.60582031,7.03125 2.34375,6.76917969 2.34375,6.4453125 C2.34375,6.12144531 2.60582031,5.859375 2.9296875,5.859375 L11.1137891,5.859375 C11.4376562,5.859375 11.6997266,6.12144531 11.6997266,6.4453125 C11.6997266,6.76917969 11.4376562,7.03125 11.1137891,7.03125 L2.9296875,7.03125 Z" id="Shape" fill="#FF8B18" fill-rule="nonzero"></path>
            <path d="M11.7621484,12.6096875 L11.2523828,14.1390234 C11.1759766,14.368125 11.3939844,14.5860547 11.6230859,14.5095312 L13.1515234,13.9990625 L11.7621484,12.6096875 Z" id="Shape" fill="#FF8B18" fill-rule="nonzero"></path>
            <path d="M16.3128516,7.78542969 L12.4539062,11.644375 L14.1181641,13.3086328 C14.9903516,12.4362891 16.6874219,10.7389844 17.9769141,9.44949219 L16.3128516,7.78542969 Z" id="Shape" fill="#FF8B18" fill-rule="nonzero"></path>
            <path d="M19.6556641,6.10484375 C19.4496875,5.89769531 19.1464063,5.77925781 18.8248047,5.77925781 C18.5032031,5.77925781 18.1999609,5.89769531 17.9928125,6.10542969 L17.1413672,6.956875 L18.8053516,8.62085937 C19.2714844,8.1546875 19.5936719,7.8325 19.656875,7.76933594 C20.1145703,7.3109375 20.1145313,6.56429687 19.6556641,6.10484375 Z" id="Shape" fill="#FF8B18" fill-rule="nonzero"></path>
            <g id="Group" transform="translate(19.648438, 7.734375)"></g>
        </g>
    </g>
</svg>