<?xml version="1.0" encoding="UTF-8"?>
<svg width="20px" height="20px" viewBox="0 0 20 20" version="1.1" xmlns="http://www.w3.org/2000/svg" xmlns:xlink="http://www.w3.org/1999/xlink">
    <!-- Generator: Sketch 49.2 (51160) - http://www.bohemiancoding.com/sketch -->
    <title>dish-grey</title>
    <desc>Created with Sketch.</desc>
    <defs></defs>
    <g id="dish-grey" stroke="none" stroke-width="1" fill="none" fill-rule="evenodd">
        <g id="dish" transform="translate(0.000000, 3.000000)" fill="#CECECE" fill-rule="nonzero">
            <path d="M19.955157,13.1070526 L19.955157,13.5486887 C19.955157,13.9146283 19.6540807,14.2111428 19.2825112,14.2111428 L0.67264574,14.2111428 C0.301076233,14.2111428 0,13.9146283 0,13.5486887 L0,13.1070526 C0,12.7411129 0.301076233,12.4445985 0.67264574,12.4445985 L19.2825112,12.4445985 C19.6540807,12.4445985 19.955157,12.7412013 19.955157,13.1070526 Z M19.3497758,11.001155 C19.3497758,11.3670947 19.0486996,11.6636092 18.67713,11.6636092 L1.27802691,11.6636092 C0.906457399,11.6636092 0.605381166,11.3670947 0.605381166,11.001155 C0.605381166,6.38588123 4.06278027,2.55097839 8.56071749,1.8763351 C8.52017937,1.74349096 8.49775785,1.60305069 8.49775785,1.4573991 C8.49775785,0.65379807 9.16161435,0 9.97757848,0 C10.7935426,0 11.4573991,0.65379807 11.4573991,1.4573991 C11.4573991,1.60305069 11.4349776,1.74349096 11.3944395,1.8763351 C15.8923767,2.55089007 19.3497758,6.38588123 19.3497758,11.001155 Z M9.28843049,3.77448702 C9.19784753,3.41958826 8.83264574,3.20486479 8.47210762,3.29336866 C8.36520179,3.31986683 5.83345291,3.96333062 4.20197309,5.8658989 C2.81865471,7.47910722 2.64331839,9.49420438 2.63659193,9.57917516 C2.60744395,9.94387824 2.88403587,10.2628278 3.25443946,10.2914458 C3.27237668,10.2928591 3.29013453,10.2934774 3.30789238,10.2934774 C3.6555157,10.2934774 3.95004484,10.0300856 3.97775785,9.68295964 C3.97910314,9.66635412 4.12286996,8.01163202 5.22995516,6.72064139 C6.57174888,5.15583639 8.76502242,4.58727409 8.80080717,4.57808806 C9.1606278,4.48870091 9.37883408,4.1291208 9.28843049,3.77448702 Z" id="Shape"></path>
        </g>
    </g>
</svg>