<?xml version="1.0" encoding="UTF-8"?>
<svg width="20px" height="20px" viewBox="0 0 20 20" version="1.1" xmlns="http://www.w3.org/2000/svg" xmlns:xlink="http://www.w3.org/1999/xlink">
    <!-- Generator: Sketch 49.2 (51160) - http://www.bohemiancoding.com/sketch -->
    <title>house-grey</title>
    <desc>Created with Sketch.</desc>
    <defs></defs>
    <g id="house-grey" stroke="none" stroke-width="1" fill="none" fill-rule="evenodd">
        <g id="house" fill="#CECECE" fill-rule="nonzero">
            <path d="M17.0827734,1.17472656 L14.7390234,1.17472656 C14.5163672,1.17472656 14.3171484,1.291875 14.2233984,1.47941406 L17.6687109,4.42082031 L17.6687109,1.76066406 C17.6687109,1.4325 17.4109375,1.17472656 17.0827734,1.17472656 Z" id="Shape"></path>
            <path d="M7.734375,14.0625 L7.734375,20 L12.421875,20 L12.421875,14.0625 L7.734375,14.0625 Z M10.6640625,16.40625 C10.3404687,16.40625 10.078125,16.1439063 10.078125,15.8203125 C10.078125,15.4967187 10.3404687,15.234375 10.6640625,15.234375 C10.9876563,15.234375 11.25,15.4967187 11.25,15.8203125 C11.25,16.1439063 10.9876563,16.40625 10.6640625,16.40625 Z" id="Shape"></path>
            <rect id="Rectangle-path" x="8.8671875" y="8.203125" width="2.34375" height="2.34375"></rect>
            <path d="M19.5907812,7.80820312 L10.8137109,0.284375 C10.5996875,0.100703125 10.3284766,0 10.0515234,0 C9.77457031,0 9.50335937,0.100703125 9.28933594,0.285546875 L0.409101563,7.804375 C-0.0765234375,8.22058594 -0.138515625,8.94941406 0.269882813,9.44167969 C0.687617187,9.94523437 1.436875,10.0089453 1.93367187,9.58316406 L10.0515234,2.71796875 L18.0655078,9.58753906 C18.6198047,10.0626953 19.4689844,9.92074219 19.8386328,9.29113281 C20.1258594,8.80199219 20.0214453,8.17738281 19.5907812,7.80820312 Z" id="Shape"></path>
            <path d="M10.0390625,4.25835938 L2.31433594,10.7869922 L2.31433594,19.4140625 C2.31433594,19.7422266 2.57210937,20 2.90027344,20 L6.5234375,20 L6.5234375,13.4765625 C6.5234375,13.1526953 6.78550781,12.890625 7.109375,12.890625 L12.96875,12.890625 C13.2926172,12.890625 13.5546875,13.1526953 13.5546875,13.4765625 L13.5546875,20 L17.0703125,20 C17.3984766,20 17.65625,19.7422266 17.65625,19.4140625 L17.65625,10.7882031 L10.0390625,4.25835938 Z M12.3828125,11.1328125 C12.3828125,11.4566797 12.1207422,11.71875 11.796875,11.71875 L8.28125,11.71875 C7.95738281,11.71875 7.6953125,11.4566797 7.6953125,11.1328125 L7.6953125,7.6171875 C7.6953125,7.29332031 7.95738281,7.03125 8.28125,7.03125 L11.796875,7.03125 C12.1207422,7.03125 12.3828125,7.29332031 12.3828125,7.6171875 L12.3828125,11.1328125 Z" id="Shape"></path>
        </g>
    </g>
</svg>