<?xml version="1.0" encoding="UTF-8"?>
<svg width="20px" height="20px" viewBox="0 0 20 20" version="1.1" xmlns="http://www.w3.org/2000/svg" xmlns:xlink="http://www.w3.org/1999/xlink">
    <!-- Generator: Sketch 49.2 (51160) - http://www.bohemiancoding.com/sketch -->
    <title>info-orange</title>
    <desc>Created with Sketch.</desc>
    <defs></defs>
    <g id="info-orange" stroke="none" stroke-width="1" fill="none" fill-rule="evenodd">
        <path d="M19.6044531,18.8578906 C19.3578906,18.7142969 17.8566797,17.7846484 17.0534766,16.1037891 C18.929375,14.3497266 19.9963281,11.9096094 19.9963281,9.41234375 C19.9963281,4.24398437 15.4897266,0 9.99816406,0 C4.50660156,0 0,4.24398437 0,9.41234375 C0,14.5807031 4.50660156,18.8246875 9.99816406,18.8246875 C10.7353516,18.8246875 11.5271875,18.7555859 12.6196875,18.5260547 C15.4910938,20.0518359 18.0683594,20.0089453 19.0489453,19.9934766 C19.4854688,19.9880469 19.8023828,20.066875 19.9654688,19.6158984 C20.0758594,19.3133984 19.9125781,18.9639844 19.6044531,18.8578906 Z M11.1698438,14.1380469 C11.1698438,14.7850781 10.6452734,15.3097266 9.99816406,15.3097266 C9.35105469,15.3097266 8.82648437,14.7850781 8.82648437,14.1380469 L8.82648437,9.41234375 C8.82648437,8.76523438 9.35105469,8.24066406 9.99816406,8.24066406 C10.6452734,8.24066406 11.1698438,8.76523438 11.1698438,9.41234375 L11.1698438,14.1380469 Z M9.99816406,6.44414063 C9.35105469,6.44414063 8.82648437,5.91949219 8.82648437,5.27246094 C8.82648437,4.62535156 9.35105469,4.10078125 9.99816406,4.10078125 C10.6452734,4.10078125 11.1698437,4.62535156 11.1698437,5.27246094 C11.1698437,5.91953125 10.6452734,6.44414063 9.99816406,6.44414063 Z" id="Shape" fill="#FF8B18" fill-rule="nonzero"></path>
    </g>
</svg>