<?xml version="1.0" encoding="UTF-8"?>
<svg width="20px" height="20px" viewBox="0 0 20 20" version="1.1" xmlns="http://www.w3.org/2000/svg" xmlns:xlink="http://www.w3.org/1999/xlink">
    <!-- Generator: Sketch 49.2 (51160) - http://www.bohemiancoding.com/sketch -->
    <title>qr-orange</title>
    <desc>Created with Sketch.</desc>
    <defs></defs>
    <g id="qr-orange" stroke="none" stroke-width="1" fill="none" fill-rule="evenodd">
        <g id="qr-code" fill="#FF8B18" fill-rule="nonzero">
            <path d="M0,19.9995522 L9.09074627,19.9995522 L9.09074627,10.9087065 L0,10.9087065 L0,19.9995522 Z M1.81800995,12.7270149 L7.27253731,12.7270149 L7.27253731,18.1674129 L1.81800995,18.1674129 L1.81800995,12.7270149 Z" id="Shape"></path>
            <rect id="Rectangle-path" x="3.63626866" y="14.5450249" width="1.81810945" height="1.81835821"></rect>
            <rect id="Rectangle-path" x="14.5448756" y="18.1815423" width="1.81855721" height="1.8181592"></rect>
            <rect id="Rectangle-path" x="18.181194" y="18.1815423" width="1.81850746" height="1.8181592"></rect>
            <polygon id="Shape" points="18.181393 12.7270149 16.3633831 12.7270149 16.3633831 10.9087065 10.9087065 10.9087065 10.9087065 19.9995522 12.7270149 19.9995522 12.7270149 14.5450249 14.5448756 14.5450249 14.5448756 16.3633831 19.9995522 16.3633831 19.9995522 10.9087065 19.9995522 10.9087065 18.181393 10.9087065"></polygon>
            <path d="M0,9.09094527 L9.09074627,9.09094527 L9.09074627,0 L0,0 L0,9.09094527 Z M1.81800995,1.81800995 L7.27253731,1.81800995 L7.27253731,7.27253731 L1.81800995,7.27253731 L1.81800995,1.81800995 Z" id="Shape"></path>
            <rect id="Rectangle-path" x="3.63626866" y="3.63626866" width="1.81810945" height="1.81825871"></rect>
            <path d="M10.9087065,0 L10.9087065,9.09094527 L19.9997015,9.09094527 L19.9997015,0 L10.9087065,0 Z M18.181393,7.27253731 L12.7270149,7.27253731 L12.7270149,1.81800995 L18.181393,1.81800995 L18.181393,7.27253731 Z" id="Shape"></path>
            <rect id="Rectangle-path" x="14.5448756" y="3.63626866" width="1.81855721" height="1.81825871"></rect>
        </g>
    </g>
</svg>