<?xml version="1.0" encoding="UTF-8"?>
<svg width="20px" height="20px" viewBox="0 0 20 20" version="1.1" xmlns="http://www.w3.org/2000/svg" xmlns:xlink="http://www.w3.org/1999/xlink">
    <!-- Generator: Sketch 49.2 (51160) - http://www.bohemiancoding.com/sketch -->
    <title>spicy-grey</title>
    <desc>Created with Sketch.</desc>
    <defs></defs>
    <g id="spicy-grey" stroke="none" stroke-width="1" fill="none" fill-rule="evenodd">
        <path d="M1.78604199,15.9997753 C4.57876239,16.3119147 7.18756265,15.0792079 9.47941951,12.6313598 C12.2275811,9.69575577 12.3349447,5.26685884 12.3349447,4.70038221 C12.3349447,4.13390559 18.7941598,2.96913637 18.6171155,7.53287965 C18.3721191,13.8754213 14.3743916,19.3987875 7.24241602,19.9483083 C3.82606503,20.211714 1.71470956,19.4226018 0.739256806,18.6198488 C-0.796483965,17.3559738 0.31087809,15.8349419 1.78604199,15.9997753" id="Shape" fill="#E6E6E6" fill-rule="nonzero"></path>
        <g id="Group" transform="translate(11.724138, 0.000000)" fill="#CDCDCD" fill-rule="nonzero">
            <path d="M0.0694636015,4.5357931 C0.323524904,3.65996552 1.95555556,2.3775931 4.15206897,2.86762414 C6.57302682,3.40787586 7.57731801,4.54254483 7.57731801,6.60997586 C7.57731801,8.67793793 5.52831418,6.88573448 5.2435249,6.2513 C4.95873563,5.61686552 3.77214559,7.52016897 2.7354023,5.52943448 C2.38444444,4.85612069 -0.376015326,6.0709 0.0694636015,4.5357931" id="Shape"></path>
            <path d="M2.85812261,0.544955173 C3.50639847,1.19911379 4.58697318,2.08563793 4.11417625,3.51468966 C3.6408046,4.94370345 4.8416092,4.91950345 5.1389272,4.05103448 C5.4351341,3.18313448 5.52455939,1.31533448 4.89114943,0.481268966 C4.25831418,-0.352834482 2.36770115,0.0498034486 2.85812261,0.544955173" id="Shape"></path>
        </g>
    </g>
</svg>